<svg xmlns="http://www.w3.org/2000/svg" xmlns:xlink="http://www.w3.org/1999/xlink" version="1.1" style="" xml:space="preserve" width="100" height="125"><rect id="backgroundrect" width="100%" height="100%" x="0" y="0" fill="none" stroke="none"/><g class="currentLayer" style=""><title>Layer 1</title><path d="M72.1,64.2c4.8-6,7.4-13.5,7.4-21.3c0-19-15.5-34.4-34.5-34.4C26,8.6,10.5,24,10.5,43S26,77.4,44.9,77.4  c7.6,0,15.1-2.6,21.3-7.4l20.7,20.7l5.9-5.9L72.1,64.2z M44.9,69.2c-14.4,0-26.1-11.7-26.1-26.1C18.8,28.7,30.5,17,44.9,17  C59.3,17,71,28.7,71,43.1C71,57.5,59.3,69.2,44.9,69.2z" id="svg_1" class="selected" fill-opacity="1" fill="#9ba3b0"/></g></svg>